<svg xmlns="http://www.w3.org/2000/svg" width="43" height="58" viewBox="0 0 43 58">
  <g id="t1-i15" transform="translate(-275 -5426.586)">
    <rect id="Rectangle_13189" data-name="Rectangle 13189" width="43" height="58" transform="translate(275 5426.586)" fill="none"/>
    <g id="t1-i15-2" data-name="t1-i15" transform="translate(275.773 5427.056)">
      <path id="Path_101181" data-name="Path 101181" d="M-7569.087-6260.711l-1.8,1.309v53.348h40.093v-41.565l-12.6-13.091Z" transform="translate(7571.598 6261.785)" fill="#fff"/>
      <g id="t1-i15-3" data-name="t1-i15" transform="translate(0 0)">
        <g id="Grupo_81177" data-name="Grupo 81177">
          <path id="Trazado_101489" data-name="Trazado 101489" d="M1786.652,110.624a1.117,1.117,0,0,0-.269-.729L1775.3,97.236s-.006,0-.009-.008a1.154,1.154,0,0,0-.225-.188L1775,97a1.205,1.205,0,0,0-.223-.093c-.021-.006-.04-.014-.06-.02a1.059,1.059,0,0,0-.259-.032h-27.233a2.257,2.257,0,0,0-2.254,2.254v52.966a2.257,2.257,0,0,0,2.254,2.255h37.188a2.256,2.256,0,0,0,2.254-2.254V110.75A1.15,1.15,0,0,0,1786.652,110.624ZM1756.2,146.24c0,3.894-1.868,5.253-4.867,5.253a8.063,8.063,0,0,1-2.251-.324l.345-2.495a5.082,5.082,0,0,0,1.58.244c1.3,0,2.109-.589,2.109-2.719v-8.6h3.085v8.64ZM1767.337,145a6.341,6.341,0,0,1-4.442,1.439,7.706,7.706,0,0,1-1.055-.06v4.889h-3.062V137.781a25.226,25.226,0,0,1,4.178-.284,6.556,6.556,0,0,1,4.178,1.095,3.994,3.994,0,0,1,1.46,3.164A4.367,4.367,0,0,1,1767.337,145Zm14.644,5.638a15.29,15.29,0,0,1-4.564.771,7.618,7.618,0,0,1-5.556-1.845,6.617,6.617,0,0,1-1.927-4.972c.02-4.543,3.325-7.14,7.807-7.14a9.391,9.391,0,0,1,3.793.67l-.649,2.474a7.578,7.578,0,0,0-3.184-.588c-2.575,0-4.522,1.46-4.522,4.422a4.476,4.476,0,0,0,5.821,4.28v-2.859h-2.11v-2.414h5.091v7.2Zm-34.761-15.519V99.1h26.107v11.532a1.128,1.128,0,0,0,1.127,1.127h9.956V135.12Z" transform="translate(-1744.967 -96.851)" fill="#26c7db"/>
          <path id="Trazado_101490" data-name="Trazado 101490" d="M1775.6,171.629a5.243,5.243,0,0,0-1.278.122v4.035a4.728,4.728,0,0,0,1.034.082c1.643,0,2.658-.833,2.658-2.231C1778.018,172.379,1777.145,171.629,1775.6,171.629Z" transform="translate(-1757.452 -128.65)" fill="#26c7db"/>
          <g id="Grupo_81176" data-name="Grupo 81176" transform="translate(8.918 24.659)">
            <path id="Trazado_101491" data-name="Trazado 101491" d="M1769.349,140.5c-4.5-4.5-8.865,12.913-8.865,12.913h15S1773.853,145,1769.349,140.5Z" transform="translate(-1760.484 -139.755)" fill="#26c7db"/>
            <path id="Trazado_101492" data-name="Trazado 101492" d="M1791.367,149.087c-3.19.816-4.783,8.267-4.783,8.267h10.758C1795.882,153.621,1794.092,148.39,1791.367,149.087Z" transform="translate(-1771.583 -143.697)" fill="#26c7db"/>
          </g>
          <path id="Trazado_101493" data-name="Trazado 101493" d="M1758.419,129.938a2.79,2.79,0,1,0-2.793-2.791,2.79,2.79,0,0,0,2.793,2.791Z" transform="translate(-1749.5 -108.548)" fill="#26c7db"/>
          <path id="Trazado_101494" data-name="Trazado 101494" d="M1787.354,134.37a7.933,7.933,0,0,0,1.559-.153,4.924,4.924,0,0,0,1.932.374c1.844,0,3.34-.9,3.34-2.015s-1.5-2.016-3.34-2.016a5,5,0,0,0-1.87.345,1.207,1.207,0,0,0-.839-.345h-.483a1.192,1.192,0,0,0-1.181,1.07c-1.5.156-2.606.7-2.606,1.343C1783.865,133.746,1785.426,134.37,1787.354,134.37Z" transform="translate(-1761.509 -111.186)" fill="#26c7db"/>
        </g>
      </g>
    </g>
  </g>
</svg>
