<svg xmlns="http://www.w3.org/2000/svg" width="500" height="547" viewBox="0 0 500 547">
  <g id="t1-i8" transform="translate(-908 -3983)">
    <rect id="Rectangle_5069" data-name="Rectangle 5069" width="250" height="547" transform="translate(1158 3983)" fill="#26c6da" opacity="0.25"/>
    <g id="Group_58799" data-name="Group 58799" transform="translate(-2346.703 6154.823)">
      <rect id="Rect치ngulo_5070" data-name="Rect치ngulo 5070" width="469" height="230" transform="translate(3254.703 -1882.823)" fill="#fff"/>
      <g id="Group_58798" data-name="Group 58798">
        <g id="Group_58796" data-name="Group 58796">
          <path id="Path_99472" data-name="Path 99472" d="M3417.485-1781.627a65.557,65.557,0,0,1,46.32-19.081,65.755,65.755,0,0,1,19.106,2.822c.039-.936.064-1.876.064-2.822a65.771,65.771,0,0,0-65.77-65.77,65.771,65.771,0,0,0-65.771,65.77c0,1,.027,2,.071,2.989a65.742,65.742,0,0,1,19.659-2.989A65.559,65.559,0,0,1,3417.485-1781.627Z" fill="#01aef0"/>
          <path id="Path_99473" data-name="Path 99473" d="M3398.035-1734.938c0-.946.025-1.886.064-2.822a65.8,65.8,0,0,1-46.594-59.959,65.8,65.8,0,0,0-46.111,62.781,65.77,65.77,0,0,0,65.77,65.77,65.56,65.56,0,0,0,46.321-19.082A65.562,65.562,0,0,1,3398.035-1734.938Z" fill="#fdf200"/>
          <path id="Path_99474" data-name="Path 99474" d="M3398.1-1737.76a65.557,65.557,0,0,1,19.386-43.867,65.559,65.559,0,0,0-46.321-19.081,65.742,65.742,0,0,0-19.659,2.989A65.8,65.8,0,0,0,3398.1-1737.76Z" fill="#00a652"/>
          <path id="Path_99475" data-name="Path 99475" d="M3482.911-1797.886a65.806,65.806,0,0,1-46.047,59.959c.044.991.071,1.987.071,2.989a65.566,65.566,0,0,1-19.45,46.688,65.559,65.559,0,0,0,46.32,19.082,65.77,65.77,0,0,0,65.77-65.77A65.8,65.8,0,0,0,3482.911-1797.886Z" fill="#ed008c"/>
          <path id="Path_99476" data-name="Path 99476" d="M3417.485-1781.627a65.556,65.556,0,0,1,19.379,43.7,65.806,65.806,0,0,0,46.047-59.959,65.755,65.755,0,0,0-19.106-2.822A65.557,65.557,0,0,0,3417.485-1781.627Z" fill="#2d3192"/>
          <path id="Path_99477" data-name="Path 99477" d="M3436.935-1734.938c0-1-.027-2-.071-2.989a65.742,65.742,0,0,1-19.659,2.99,65.755,65.755,0,0,1-19.106-2.823c-.039.936-.064,1.876-.064,2.822a65.562,65.562,0,0,0,19.45,46.688A65.566,65.566,0,0,0,3436.935-1734.938Z" fill="#ee1c25"/>
          <path id="Path_99478" data-name="Path 99478" d="M3417.485-1781.627a65.557,65.557,0,0,0-19.386,43.867,65.755,65.755,0,0,0,19.106,2.823,65.742,65.742,0,0,0,19.659-2.99A65.556,65.556,0,0,0,3417.485-1781.627Z"/>
          <path id="Path_99479" data-name="Path 99479" d="M3428.214-1815.3a9.634,9.634,0,0,1-1.484,4.862,8.97,8.97,0,0,1-3.812,3.269,12.968,12.968,0,0,1-5.6,1.159,10.353,10.353,0,0,1-8.185-3.387q-2.986-3.387-2.987-9.561v-1.3a15.963,15.963,0,0,1,1.349-6.781,10.21,10.21,0,0,1,3.884-4.491,10.839,10.839,0,0,1,5.867-1.584,11.366,11.366,0,0,1,7.714,2.526,9.982,9.982,0,0,1,3.314,6.962h-6.338a4.72,4.72,0,0,0-1.213-3.458,4.988,4.988,0,0,0-3.477-1.051,3.8,3.8,0,0,0-3.477,1.775,11.41,11.41,0,0,0-1.159,5.668v1.865q0,4.218,1.059,6.03a3.876,3.876,0,0,0,3.649,1.811,4.88,4.88,0,0,0,3.35-1.032,4.378,4.378,0,0,0,1.232-3.278Z"/>
          <path id="Path_99480" data-name="Path 99480" d="M3467.645-1739.877l5.885,18.343,5.867-18.343h8.366v26.365h-6.374v-6.156l.616-12.6-6.374,18.76h-4.2l-6.393-18.778.616,12.622v6.156H3459.3v-26.365Z"/>
          <path id="Path_99481" data-name="Path 99481" d="M3361.431-1728.433l4.852-11.444h6.863l-8.492,16.895v9.47h-6.447v-9.47l-8.474-16.895h6.826Z"/>
          <path id="Path_99482" data-name="Path 99482" d="M3415.757-1751.106l-2.151,2.36v5.735h-5.242v-21.746h5.242v9.589l1.822-2.763,4.69-6.826h6.481l-7.348,9.618,7.348,12.128h-6.212Z" fill="#fff"/>
        </g>
        <g id="Group_58797" data-name="Group 58797" style="isolation: isolate">
          <path id="Path_99483" data-name="Path 99483" d="M3593.488-1832.586a6.233,6.233,0,0,1-.961,3.146,5.8,5.8,0,0,1-2.467,2.115,8.393,8.393,0,0,1-3.627.75,6.7,6.7,0,0,1-5.3-2.191,9.047,9.047,0,0,1-1.933-6.187v-.844a10.33,10.33,0,0,1,.873-4.389,6.611,6.611,0,0,1,2.514-2.906,7.007,7.007,0,0,1,3.8-1.026,7.355,7.355,0,0,1,4.993,1.635,6.463,6.463,0,0,1,2.144,4.506h-4.1a3.056,3.056,0,0,0-.786-2.238,3.229,3.229,0,0,0-2.25-.68,2.458,2.458,0,0,0-2.25,1.149,7.389,7.389,0,0,0-.75,3.668v1.207a8.165,8.165,0,0,0,.686,3.9,2.509,2.509,0,0,0,2.361,1.172,3.16,3.16,0,0,0,2.168-.668,2.835,2.835,0,0,0,.8-2.121Z" fill="#01aef0"/>
          <path id="Path_99484" data-name="Path 99484" d="M3595.222-1842.758a1.76,1.76,0,0,1,.61-1.383,2.3,2.3,0,0,1,1.582-.539,2.3,2.3,0,0,1,1.582.539,1.762,1.762,0,0,1,.609,1.383,1.765,1.765,0,0,1-.609,1.383,2.3,2.3,0,0,1-1.582.539,2.3,2.3,0,0,1-1.582-.539A1.763,1.763,0,0,1,3595.222-1842.758Zm4.2,15.949h-3.961v-12.68h3.961Z" fill="#01aef0"/>
          <path id="Path_99485" data-name="Path 99485" d="M3608.992-1826.809a4.447,4.447,0,0,1-.375-1.137,3.673,3.673,0,0,1-3.047,1.371,4.5,4.5,0,0,1-3.047-1.084,3.448,3.448,0,0,1-1.254-2.724,3.545,3.545,0,0,1,1.524-3.117,7.759,7.759,0,0,1,4.429-1.055h1.219v-.671q0-1.755-1.512-1.755a1.236,1.236,0,0,0-1.406,1.39h-3.949a3.541,3.541,0,0,1,1.564-2.985,6.581,6.581,0,0,1,3.991-1.147,5.765,5.765,0,0,1,3.832,1.184,4.115,4.115,0,0,1,1.441,3.246v5.613a5.749,5.749,0,0,0,.539,2.672v.2Zm-2.473-2.578a2.212,2.212,0,0,0,1.225-.316,1.989,1.989,0,0,0,.7-.715v-2.028h-1.148q-2.062,0-2.063,1.852a1.132,1.132,0,0,0,.363.873A1.315,1.315,0,0,0,3606.519-1829.387Z" fill="#01aef0"/>
          <path id="Path_99486" data-name="Path 99486" d="M3618.215-1839.489l.128,1.489a4.3,4.3,0,0,1,3.622-1.723,3.619,3.619,0,0,1,2.959,1.184,5.633,5.633,0,0,1,1.013,3.562v8.168h-3.961v-8a2.147,2.147,0,0,0-.386-1.412,1.79,1.79,0,0,0-1.407-.451,1.884,1.884,0,0,0-1.722.914v8.953h-3.95v-12.68Z" fill="#01aef0"/>
          <path id="Path_99487" data-name="Path 99487" d="M3585.086-1799.871l3.808,11.871,3.8-11.871h5.414v17.062h-4.125v-3.984l.4-8.157-4.125,12.141h-2.719l-4.137-12.152.4,8.168v3.984h-4.114v-17.062Z" fill="#ed008c"/>
          <path id="Path_99488" data-name="Path 99488" d="M3607.679-1782.809a4.525,4.525,0,0,1-.375-1.137,3.671,3.671,0,0,1-3.046,1.371,4.5,4.5,0,0,1-3.047-1.084,3.448,3.448,0,0,1-1.254-2.724,3.547,3.547,0,0,1,1.523-3.117,7.763,7.763,0,0,1,4.43-1.055h1.219v-.671q0-1.755-1.512-1.755a1.235,1.235,0,0,0-1.406,1.39h-3.95a3.542,3.542,0,0,1,1.565-2.985,6.58,6.58,0,0,1,3.99-1.147,5.764,5.764,0,0,1,3.832,1.184,4.116,4.116,0,0,1,1.442,3.246v5.613a5.736,5.736,0,0,0,.539,2.672v.2Zm-2.472-2.578a2.208,2.208,0,0,0,1.224-.316,1.985,1.985,0,0,0,.7-.715v-2.028h-1.149q-2.062,0-2.062,1.852a1.132,1.132,0,0,0,.363.873A1.314,1.314,0,0,0,3605.207-1785.387Z" fill="#ed008c"/>
          <path id="Path_99489" data-name="Path 99489" d="M3612.812-1789.243a8.554,8.554,0,0,1,.633-3.4,5.094,5.094,0,0,1,1.816-2.279,4.79,4.79,0,0,1,2.754-.8,3.805,3.805,0,0,1,3.094,1.336l.141-1.1h3.586v12.2a5.342,5.342,0,0,1-.78,2.912,4.992,4.992,0,0,1-2.256,1.9,8.28,8.28,0,0,1-3.421.662,7.171,7.171,0,0,1-2.7-.527,4.885,4.885,0,0,1-2-1.371l1.653-2.32a3.62,3.62,0,0,0,2.906,1.3q2.625,0,2.625-2.7v-.4a3.712,3.712,0,0,1-2.871,1.253,4.581,4.581,0,0,1-3.75-1.775,7.359,7.359,0,0,1-1.43-4.752Zm3.961.247a4.5,4.5,0,0,0,.586,2.466,1.85,1.85,0,0,0,1.641.909,2.1,2.1,0,0,0,1.863-.856v-5.332a2.046,2.046,0,0,0-1.84-.867,1.859,1.859,0,0,0-1.652.943A5.138,5.138,0,0,0,3616.773-1789Z" fill="#ed008c"/>
          <path id="Path_99490" data-name="Path 99490" d="M3633.215-1782.575a6.519,6.519,0,0,1-4.723-1.74,6.01,6.01,0,0,1-1.8-4.529v-.328a7.781,7.781,0,0,1,.721-3.434,5.278,5.278,0,0,1,2.1-2.3,6.362,6.362,0,0,1,3.282-.814,5.488,5.488,0,0,1,4.218,1.658,6.514,6.514,0,0,1,1.547,4.623v1.535h-7.851a2.84,2.84,0,0,0,.926,1.676,2.753,2.753,0,0,0,1.851.61,3.551,3.551,0,0,0,2.93-1.313l1.8,2.133a5.036,5.036,0,0,1-2.091,1.623A7.076,7.076,0,0,1,3633.215-1782.575Zm-.446-10.1q-1.734,0-2.062,2.3h3.984v-.3a1.954,1.954,0,0,0-.48-1.471A1.916,1.916,0,0,0,3632.769-1792.676Z" fill="#ed008c"/>
          <path id="Path_99491" data-name="Path 99491" d="M3643.773-1795.489l.129,1.489a4.3,4.3,0,0,1,3.621-1.723,3.618,3.618,0,0,1,2.959,1.184,5.639,5.639,0,0,1,1.014,3.562v8.168h-3.961v-8a2.139,2.139,0,0,0-.387-1.412,1.787,1.787,0,0,0-1.406-.451,1.884,1.884,0,0,0-1.723.914v8.953h-3.949v-12.68Z" fill="#ed008c"/>
          <path id="Path_99492" data-name="Path 99492" d="M3658.281-1798.641v3.152h2.086v2.743h-2.086v5.8a1.478,1.478,0,0,0,.258,1,1.379,1.379,0,0,0,1.019.282,5.778,5.778,0,0,0,.985-.071v2.825a7.306,7.306,0,0,1-2.227.339,4.142,4.142,0,0,1-3.012-.96,3.942,3.942,0,0,1-.972-2.918v-6.293h-1.617v-2.743h1.617v-3.152Z" fill="#ed008c"/>
          <path id="Path_99493" data-name="Path 99493" d="M3669.062-1782.809a4.525,4.525,0,0,1-.375-1.137,3.671,3.671,0,0,1-3.047,1.371,4.5,4.5,0,0,1-3.047-1.084,3.45,3.45,0,0,1-1.253-2.724,3.544,3.544,0,0,1,1.523-3.117,7.762,7.762,0,0,1,4.43-1.055h1.218v-.671q0-1.755-1.511-1.755a1.236,1.236,0,0,0-1.407,1.39h-3.949a3.542,3.542,0,0,1,1.565-2.985,6.58,6.58,0,0,1,3.99-1.147,5.766,5.766,0,0,1,3.832,1.184,4.114,4.114,0,0,1,1.441,3.246v5.613a5.764,5.764,0,0,0,.539,2.672v.2Zm-2.472-2.578a2.208,2.208,0,0,0,1.224-.316,1.983,1.983,0,0,0,.7-.715v-2.028h-1.148q-2.062,0-2.063,1.852a1.133,1.133,0,0,0,.364.873A1.314,1.314,0,0,0,3666.59-1785.387Z" fill="#ed008c"/>
          <path id="Path_99494" data-name="Path 99494" d="M3585.929-1748.465l3.141-7.406h4.441l-5.5,10.933v6.129h-4.172v-6.129l-5.484-10.933h4.418Z" fill="#fdf200"/>
          <path id="Path_99495" data-name="Path 99495" d="M3599.945-1738.575a6.52,6.52,0,0,1-4.723-1.74,6.01,6.01,0,0,1-1.8-4.529v-.328a7.794,7.794,0,0,1,.72-3.434,5.28,5.28,0,0,1,2.1-2.3,6.361,6.361,0,0,1,3.281-.814,5.49,5.49,0,0,1,4.219,1.658,6.519,6.519,0,0,1,1.547,4.623v1.535h-7.852a2.845,2.845,0,0,0,.926,1.676,2.758,2.758,0,0,0,1.852.61,3.548,3.548,0,0,0,2.929-1.313l1.8,2.133a5.04,5.04,0,0,1-2.092,1.623A7.072,7.072,0,0,1,3599.945-1738.575Zm-.445-10.1q-1.735,0-2.063,2.3h3.985v-.3a1.959,1.959,0,0,0-.481-1.471A1.913,1.913,0,0,0,3599.5-1748.676Z" fill="#fdf200"/>
          <path id="Path_99496" data-name="Path 99496" d="M3611.043-1738.809h-3.961v-18h3.961Z" fill="#fdf200"/>
          <path id="Path_99497" data-name="Path 99497" d="M3617.64-1738.809h-3.961v-18h3.961Z" fill="#fdf200"/>
          <path id="Path_99498" data-name="Path 99498" d="M3619.574-1745.266a7.485,7.485,0,0,1,.738-3.381,5.276,5.276,0,0,1,2.121-2.279,6.39,6.39,0,0,1,3.246-.8,5.831,5.831,0,0,1,4.489,1.764,6.769,6.769,0,0,1,1.64,4.8v.14a6.568,6.568,0,0,1-1.646,4.705,5.848,5.848,0,0,1-4.459,1.74,5.913,5.913,0,0,1-4.348-1.623,6.346,6.346,0,0,1-1.769-4.4Zm3.949.246a4.719,4.719,0,0,0,.551,2.578,1.835,1.835,0,0,0,1.629.821q2.109,0,2.156-3.247v-.4q0-3.409-2.18-3.41-1.98,0-2.144,2.941Z" fill="#fdf200"/>
          <path id="Path_99499" data-name="Path 99499" d="M3644.5-1744.012l1.277-7.477h3.785l-2.988,12.68h-3.34l-2.1-7.523-2.109,7.523h-3.34l-2.988-12.68h3.785l1.254,7.653,2.016-7.653h2.754Z" fill="#fdf200"/>
          <path id="Path_99500" data-name="Path 99500" d="M3579.683-1694.809v-17.062h6.129a8.676,8.676,0,0,1,5.01,1.207,4.016,4.016,0,0,1,1.717,3.5,4.053,4.053,0,0,1-.61,2.261,3.551,3.551,0,0,1-1.793,1.383,3.59,3.59,0,0,1,2.051,1.313,3.809,3.809,0,0,1,.715,2.343,4.517,4.517,0,0,1-1.588,3.768,7.556,7.556,0,0,1-4.705,1.283Zm4.114-9.949h2.144a3.043,3.043,0,0,0,1.922-.494,1.75,1.75,0,0,0,.574-1.422,1.838,1.838,0,0,0-.621-1.557,3.326,3.326,0,0,0-2-.476H3583.8Zm0,2.7v4.09h2.695a2.564,2.564,0,0,0,1.711-.51,1.784,1.784,0,0,0,.6-1.435,1.892,1.892,0,0,0-2.121-2.145Z"/>
          <path id="Path_99501" data-name="Path 99501" d="M3599.148-1694.809h-3.961v-18h3.961Z"/>
          <path id="Path_99502" data-name="Path 99502" d="M3608.722-1694.809a4.525,4.525,0,0,1-.375-1.137,3.671,3.671,0,0,1-3.047,1.371,4.5,4.5,0,0,1-3.046-1.084,3.448,3.448,0,0,1-1.254-2.724,3.547,3.547,0,0,1,1.523-3.117,7.763,7.763,0,0,1,4.43-1.055h1.219v-.671q0-1.755-1.512-1.755a1.235,1.235,0,0,0-1.406,1.39h-3.95a3.542,3.542,0,0,1,1.565-2.985,6.58,6.58,0,0,1,3.99-1.147,5.764,5.764,0,0,1,3.832,1.184,4.116,4.116,0,0,1,1.442,3.246v5.613a5.733,5.733,0,0,0,.539,2.672v.2Zm-2.472-2.578a2.21,2.21,0,0,0,1.224-.316,1.989,1.989,0,0,0,.7-.715v-2.028h-1.149q-2.062,0-2.062,1.852a1.132,1.132,0,0,0,.363.873A1.314,1.314,0,0,0,3606.25-1697.387Z"/>
          <path id="Path_99503" data-name="Path 99503" d="M3619.679-1697.621a1.754,1.754,0,0,0,1.289-.452,1.65,1.65,0,0,0,.446-1.259h3.7a4.386,4.386,0,0,1-1.494,3.422,5.562,5.562,0,0,1-3.85,1.335,5.626,5.626,0,0,1-4.359-1.734,6.832,6.832,0,0,1-1.594-4.805v-.164a7.714,7.714,0,0,1,.709-3.392,5.158,5.158,0,0,1,2.045-2.262,6.1,6.1,0,0,1,3.164-.791,5.49,5.49,0,0,1,3.926,1.371,4.862,4.862,0,0,1,1.453,3.715h-3.7a2.168,2.168,0,0,0-.481-1.512,1.66,1.66,0,0,0-1.289-.527q-1.534,0-1.793,1.957a13.95,13.95,0,0,0-.082,1.711,5.432,5.432,0,0,0,.457,2.648A1.583,1.583,0,0,0,3619.679-1697.621Z"/>
          <path id="Path_99504" data-name="Path 99504" d="M3631.879-1699.532l-1.114,1.114v3.609h-3.949v-18.012h3.949v9.563l.4-.527,2.976-3.7h4.735l-4.442,5.215,4.735,7.465h-4.524Z"/>
        </g>
      </g>
    </g>
    <g id="Group_58803" data-name="Group 58803" transform="translate(-2346.703 5652.787)">
      <rect id="Rect치ngulo_5070-2" data-name="Rect치ngulo 5070" width="469" height="230" transform="translate(3254.703 -1640.787)" fill="#fff"/>
      <g id="Group_58802" data-name="Group 58802">
        <g id="Group_58800" data-name="Group 58800" style="isolation: isolate">
          <path id="Path_99505" data-name="Path 99505" d="M3586.023-1557.393H3583.8v6.035h-4.114v-17.062h6.715a7.5,7.5,0,0,1,4.746,1.345,4.563,4.563,0,0,1,1.711,3.8,5.533,5.533,0,0,1-.721,2.95,5.11,5.11,0,0,1-2.255,1.9l3.562,6.889v.176h-4.406Zm-2.226-3.164h2.6a2.334,2.334,0,0,0,1.764-.617,2.388,2.388,0,0,0,.592-1.721,2.413,2.413,0,0,0-.6-1.732,2.312,2.312,0,0,0-1.758-.629h-2.6Z" fill="#fe0000"/>
          <path id="Path_99506" data-name="Path 99506" d="M3601.293-1551.123a6.514,6.514,0,0,1-4.723-1.741,6.01,6.01,0,0,1-1.805-4.529v-.328a7.8,7.8,0,0,1,.721-3.434,5.27,5.27,0,0,1,2.1-2.3,6.346,6.346,0,0,1,3.281-.815,5.492,5.492,0,0,1,4.219,1.658,6.518,6.518,0,0,1,1.546,4.623v1.536h-7.851a2.839,2.839,0,0,0,.926,1.675,2.749,2.749,0,0,0,1.851.61,3.55,3.55,0,0,0,2.93-1.313l1.805,2.133a5.05,5.05,0,0,1-2.092,1.623A7.076,7.076,0,0,1,3601.293-1551.123Zm-.446-10.1q-1.734,0-2.062,2.3h3.984v-.305a1.952,1.952,0,0,0-.48-1.47A1.913,1.913,0,0,0,3600.847-1561.225Z" fill="#fe0000"/>
          <path id="Path_99507" data-name="Path 99507" d="M3607.726-1557.791a7.744,7.744,0,0,1,1.3-4.746,4.28,4.28,0,0,1,3.633-1.735,3.642,3.642,0,0,1,2.859,1.336v-6.422h3.961v18h-3.551l-.2-1.359a3.741,3.741,0,0,1-3.094,1.594,4.274,4.274,0,0,1-3.586-1.735A8,8,0,0,1,3607.726-1557.791Zm3.949.246q0,3.375,1.969,3.375a1.943,1.943,0,0,0,1.875-1.1v-4.828a1.891,1.891,0,0,0-1.851-1.125q-1.828,0-1.981,2.953Z" fill="#fe0000"/>
          <path id="Path_99508" data-name="Path 99508" d="M3593.652-1509.467a6.624,6.624,0,0,1-2.777,1.7,11.975,11.975,0,0,1-4.008.645,7.149,7.149,0,0,1-5.356-2.051,8.3,8.3,0,0,1-2.144-5.707l-.012-1.477a10.18,10.18,0,0,1,.891-4.4,6.614,6.614,0,0,1,2.549-2.895,7.213,7.213,0,0,1,3.838-1.013,7.556,7.556,0,0,1,4.951,1.459,6.179,6.179,0,0,1,2.056,4.353h-3.961a3.229,3.229,0,0,0-.914-2.039,2.947,2.947,0,0,0-1.992-.609,2.682,2.682,0,0,0-2.39,1.312,7,7,0,0,0-.856,3.75v1.031a6.86,6.86,0,0,0,.873,3.838,3.087,3.087,0,0,0,2.748,1.284,3.462,3.462,0,0,0,2.391-.715v-2.649h-2.86v-2.824h6.973Z" fill="#00ff01"/>
          <path id="Path_99509" data-name="Path 99509" d="M3603.531-1516.463l-1.3-.094a2.335,2.335,0,0,0-2.39,1.172v8.027h-3.95v-12.679h3.7l.129,1.628a3.059,3.059,0,0,1,2.778-1.863,3.835,3.835,0,0,1,1.1.141Z" fill="#00ff01"/>
          <path id="Path_99510" data-name="Path 99510" d="M3610.867-1507.123a6.516,6.516,0,0,1-4.723-1.741,6.009,6.009,0,0,1-1.8-4.529v-.328a7.8,7.8,0,0,1,.72-3.434,5.276,5.276,0,0,1,2.1-2.3,6.348,6.348,0,0,1,3.281-.815,5.491,5.491,0,0,1,4.219,1.658,6.519,6.519,0,0,1,1.547,4.623v1.536h-7.852a2.845,2.845,0,0,0,.926,1.675,2.75,2.75,0,0,0,1.851.61,3.55,3.55,0,0,0,2.93-1.313l1.805,2.133a5.044,5.044,0,0,1-2.092,1.623A7.072,7.072,0,0,1,3610.867-1507.123Zm-.445-10.1q-1.736,0-2.063,2.3h3.984v-.305a1.952,1.952,0,0,0-.48-1.47A1.91,1.91,0,0,0,3610.422-1517.225Z" fill="#00ff01"/>
          <path id="Path_99511" data-name="Path 99511" d="M3623.933-1507.123a6.514,6.514,0,0,1-4.722-1.741,6.01,6.01,0,0,1-1.8-4.529v-.328a7.785,7.785,0,0,1,.721-3.434,5.27,5.27,0,0,1,2.1-2.3,6.352,6.352,0,0,1,3.281-.815,5.489,5.489,0,0,1,4.219,1.658,6.519,6.519,0,0,1,1.547,4.623v1.536h-7.852a2.848,2.848,0,0,0,.926,1.675,2.752,2.752,0,0,0,1.852.61,3.552,3.552,0,0,0,2.93-1.313l1.8,2.133a5.034,5.034,0,0,1-2.092,1.623A7.071,7.071,0,0,1,3623.933-1507.123Zm-.445-10.1q-1.734,0-2.063,2.3h3.985v-.305a1.955,1.955,0,0,0-.481-1.47A1.91,1.91,0,0,0,3623.488-1517.225Z" fill="#00ff01"/>
          <path id="Path_99512" data-name="Path 99512" d="M3634.492-1520.037l.129,1.488a4.3,4.3,0,0,1,3.621-1.723,3.618,3.618,0,0,1,2.959,1.184,5.639,5.639,0,0,1,1.014,3.562v8.168h-3.961v-8a2.14,2.14,0,0,0-.387-1.412,1.789,1.789,0,0,0-1.406-.451,1.884,1.884,0,0,0-1.723.914v8.953h-3.949v-12.679Z" fill="#00ff01"/>
          <path id="Path_99513" data-name="Path 99513" d="M3579.683-1463.358v-17.062h6.129a8.677,8.677,0,0,1,5.01,1.207,4.016,4.016,0,0,1,1.717,3.5,4.051,4.051,0,0,1-.61,2.261,3.552,3.552,0,0,1-1.793,1.383,3.6,3.6,0,0,1,2.051,1.313,3.811,3.811,0,0,1,.715,2.343,4.518,4.518,0,0,1-1.588,3.768,7.55,7.55,0,0,1-4.705,1.283Zm4.114-9.949h2.144a3.042,3.042,0,0,0,1.922-.494,1.748,1.748,0,0,0,.574-1.422,1.838,1.838,0,0,0-.621-1.557,3.326,3.326,0,0,0-2-.476H3583.8Zm0,2.695v4.09h2.695a2.564,2.564,0,0,0,1.711-.51,1.782,1.782,0,0,0,.6-1.435,1.892,1.892,0,0,0-2.121-2.145Z" fill="#0000fe"/>
          <path id="Path_99514" data-name="Path 99514" d="M3599.148-1463.358h-3.961v-18h3.961Z" fill="#0000fe"/>
          <path id="Path_99515" data-name="Path 99515" d="M3609.133-1464.729a4.074,4.074,0,0,1-3.387,1.606,3.993,3.993,0,0,1-3.158-1.213,5.1,5.1,0,0,1-1.073-3.487v-8.214h3.95v8.238a1.419,1.419,0,0,0,1.582,1.629,2.063,2.063,0,0,0,1.933-.973v-8.894h3.973v12.679h-3.7Z" fill="#0000fe"/>
          <path id="Path_99516" data-name="Path 99516" d="M3621.25-1463.123a6.514,6.514,0,0,1-4.723-1.741,6.01,6.01,0,0,1-1.805-4.529v-.328a7.8,7.8,0,0,1,.721-3.434,5.276,5.276,0,0,1,2.1-2.3,6.345,6.345,0,0,1,3.281-.815,5.493,5.493,0,0,1,4.219,1.658,6.52,6.52,0,0,1,1.546,4.623v1.536h-7.851a2.844,2.844,0,0,0,.926,1.675,2.749,2.749,0,0,0,1.851.61,3.55,3.55,0,0,0,2.93-1.313l1.8,2.133a5.047,5.047,0,0,1-2.092,1.623A7.076,7.076,0,0,1,3621.25-1463.123Zm-.446-10.1q-1.734,0-2.062,2.3h3.984v-.305a1.952,1.952,0,0,0-.48-1.47A1.913,1.913,0,0,0,3620.8-1473.225Z" fill="#0000fe"/>
        </g>
        <g id="Group_58801" data-name="Group 58801">
          <path id="Path_99517" data-name="Path 99517" d="M3417.485-1539.591a65.558,65.558,0,0,1,46.32-19.082,65.755,65.755,0,0,1,19.106,2.823c.039-.936.064-1.876.064-2.822a65.77,65.77,0,0,0-65.77-65.77,65.771,65.771,0,0,0-65.771,65.77c0,1,.027,2,.071,2.989a65.742,65.742,0,0,1,19.659-2.99A65.56,65.56,0,0,1,3417.485-1539.591Z" fill="#fe0000"/>
          <path id="Path_99518" data-name="Path 99518" d="M3398.035-1492.9c0-.945.025-1.885.064-2.821a65.8,65.8,0,0,1-46.594-59.959,65.8,65.8,0,0,0-46.111,62.78,65.771,65.771,0,0,0,65.77,65.771,65.56,65.56,0,0,0,46.321-19.082A65.564,65.564,0,0,1,3398.035-1492.9Z" fill="#0000fe"/>
          <path id="Path_99519" data-name="Path 99519" d="M3398.1-1495.724a65.557,65.557,0,0,1,19.386-43.867,65.56,65.56,0,0,0-46.321-19.082,65.742,65.742,0,0,0-19.659,2.99A65.8,65.8,0,0,0,3398.1-1495.724Z" fill="#fe00fe"/>
          <path id="Path_99520" data-name="Path 99520" d="M3482.911-1555.85a65.8,65.8,0,0,1-46.047,59.958c.044.992.071,1.987.071,2.989a65.568,65.568,0,0,1-19.45,46.689,65.559,65.559,0,0,0,46.32,19.082,65.771,65.771,0,0,0,65.77-65.771A65.794,65.794,0,0,0,3482.911-1555.85Z" fill="#00ff01"/>
          <path id="Path_99521" data-name="Path 99521" d="M3417.485-1539.591a65.552,65.552,0,0,1,19.379,43.7,65.8,65.8,0,0,0,46.047-59.958,65.755,65.755,0,0,0-19.106-2.823A65.558,65.558,0,0,0,3417.485-1539.591Z" fill="#ffff01"/>
          <path id="Path_99522" data-name="Path 99522" d="M3436.935-1492.9c0-1-.027-2-.071-2.989a65.711,65.711,0,0,1-19.659,2.99,65.755,65.755,0,0,1-19.106-2.822c-.039.936-.064,1.876-.064,2.821a65.564,65.564,0,0,0,19.45,46.689A65.568,65.568,0,0,0,3436.935-1492.9Z" fill="#01ffff"/>
          <path id="Path_99523" data-name="Path 99523" d="M3417.485-1539.591a65.557,65.557,0,0,0-19.386,43.867,65.755,65.755,0,0,0,19.106,2.822,65.711,65.711,0,0,0,19.659-2.99A65.552,65.552,0,0,0,3417.485-1539.591Z" fill="#fff"/>
          <path id="Path_99524" data-name="Path 99524" d="M3416.372-1573.3h-3.441v9.325h-6.356v-26.365h10.376a11.583,11.583,0,0,1,7.334,2.08,7.048,7.048,0,0,1,2.644,5.878,8.566,8.566,0,0,1-1.114,4.56,7.9,7.9,0,0,1-3.486,2.93l5.5,10.646v.271h-6.809Zm-3.441-4.89h4.02a3.609,3.609,0,0,0,2.725-.952,3.687,3.687,0,0,0,.915-2.66,3.729,3.729,0,0,0-.924-2.678,3.575,3.575,0,0,0-2.716-.971h-4.02Z"/>
          <path id="Path_99525" data-name="Path 99525" d="M3484.576-1475.1a10.214,10.214,0,0,1-4.291,2.626,18.488,18.488,0,0,1-6.193,1,11.041,11.041,0,0,1-8.276-3.169q-3.1-3.17-3.314-8.818l-.018-2.282a15.746,15.746,0,0,1,1.376-6.8,10.218,10.218,0,0,1,3.939-4.472,11.132,11.132,0,0,1,5.93-1.567q4.926,0,7.651,2.255a9.546,9.546,0,0,1,3.178,6.727h-6.121a5,5,0,0,0-1.412-3.151,4.554,4.554,0,0,0-3.078-.942,4.145,4.145,0,0,0-3.694,2.029,10.81,10.81,0,0,0-1.322,5.794v1.594a10.6,10.6,0,0,0,1.349,5.93,4.771,4.771,0,0,0,4.246,1.983,5.336,5.336,0,0,0,3.694-1.1v-4.092H3473.8v-4.364h10.774Z"/>
          <path id="Path_99526" data-name="Path 99526" d="M3351.227-1471.476v-26.365h9.47q5.09,0,7.741,1.865a6.2,6.2,0,0,1,2.653,5.414,6.276,6.276,0,0,1-.941,3.495,5.485,5.485,0,0,1-2.771,2.137,5.551,5.551,0,0,1,3.169,2.028,5.9,5.9,0,0,1,1.1,3.622,6.979,6.979,0,0,1-2.454,5.821q-2.454,1.948-7.271,1.983Zm6.356-15.374h3.313a4.711,4.711,0,0,0,2.97-.762,2.709,2.709,0,0,0,.887-2.2,2.843,2.843,0,0,0-.959-2.407,5.137,5.137,0,0,0-3.1-.735h-3.114Zm0,4.165v6.32h4.164a3.961,3.961,0,0,0,2.644-.788,2.755,2.755,0,0,0,.924-2.218q0-3.3-3.278-3.314Z"/>
        </g>
      </g>
    </g>
  </g>
</svg>
