<svg xmlns="http://www.w3.org/2000/svg" width="41.168" height="57" viewBox="0 0 41.168 57">
  <g id="t1-i17" transform="translate(-277.832 -5838.132)">
    <g id="t1-i17-2" data-name="t1-i17" transform="translate(277.832 5838.31)">
      <path id="Path_101183" data-name="Path 101183" d="M-7569.133-6260.711l-1.754,1.272v51.857h39.073v-40.4l-12.28-12.726Z" transform="translate(7571.852 6262.402)" fill="#fff"/>
      <g id="t1-i17-3" data-name="t1-i17" transform="translate(0 0)">
        <g id="Grupo_81179" data-name="Grupo 81179">
          <path id="Trazado_101495" data-name="Trazado 101495" d="M1562.359,166.268a4.873,4.873,0,0,0-1.184.113v3.745a4.347,4.347,0,0,0,.961.075c1.524,0,2.465-.772,2.465-2.07C1564.6,166.964,1563.791,166.268,1562.359,166.268Z" transform="translate(-1554.525 -123.78)" fill="#26c7db"/>
          <path id="Trazado_101496" data-name="Trazado 101496" d="M1599.893,116.848l0,0v0Z" transform="translate(-1571.363 -102.29)" fill="#26c7db"/>
          <path id="Trazado_101497" data-name="Trazado 101497" d="M1590.4,104.63a1.1,1.1,0,0,0-.264-.718l-10.9-12.446s-.005,0-.008-.008a1.094,1.094,0,0,0-.22-.185c-.024-.015-.047-.028-.072-.043a1.175,1.175,0,0,0-.219-.092c-.02-.006-.039-.015-.06-.02a1.1,1.1,0,0,0-.254-.032h-26.779a2.219,2.219,0,0,0-2.216,2.216v52.08a2.219,2.219,0,0,0,2.216,2.216h36.568a2.219,2.219,0,0,0,2.216-2.216v-40.63C1590.406,104.712,1590.4,104.67,1590.4,104.63Zm-29.24,33.743a5.882,5.882,0,0,1-4.121,1.336,7.164,7.164,0,0,1-.978-.057v4.535h-2.841V131.674a23.546,23.546,0,0,1,3.877-.263,6.078,6.078,0,0,1,3.876,1.017,3.709,3.709,0,0,1,1.356,2.935A4.05,4.05,0,0,1,1561.157,138.373Zm13.492,5.814h-3.009l-2.71-4.892a47.046,47.046,0,0,1-2.2-4.478l-.057.019c.076,1.675.113,3.462.113,5.532v3.82h-2.634V131.5h3.349l2.635,4.647a36.772,36.772,0,0,1,2.069,4.348h.057a46.809,46.809,0,0,1-.245-5.287v-3.707h2.635v12.681Zm13.079-.583a14.2,14.2,0,0,1-4.234.715,7.066,7.066,0,0,1-5.156-1.713,6.132,6.132,0,0,1-1.788-4.61c.018-4.214,3.086-6.623,7.244-6.623a8.714,8.714,0,0,1,3.52.622l-.6,2.3a7.049,7.049,0,0,0-2.956-.545c-2.389,0-4.2,1.355-4.2,4.1a4.154,4.154,0,0,0,5.4,3.971v-2.653H1583v-2.239h4.723v6.68h0Zm-36.1-14.887V93.3H1577.3v7.971h.693v4.371h4.326v.105h5.877v22.966Z" transform="translate(-1549.408 -91.087)" fill="#26c7db"/>
          <path id="Trazado_101498" data-name="Trazado 101498" d="M1565.76,126.6h4.295v-4.372h-4.326v-4.371h4.326v-4.371h-4.326v-4.369h-4.371v4.371h4.325v4.371h-4.325v4.369h4.325V126.6h-4.293v4.371h4.325v4.37h4.369v-4.37h-4.325Z" transform="translate(-1554.604 -98.926)" fill="#26c7db"/>
          <path id="Trazado_101499" data-name="Trazado 101499" d="M1581.205,126.6h4.295v-4.372h-4.327v-4.371h4.325v-4.371h-4.325v-4.369H1576.8v4.371h4.325v4.371H1576.8v4.369h4.325V126.6h-4.293v4.371h4.325v4.37h4.371v-4.37h-4.325Z" transform="translate(-1561.32 -98.926)" fill="#26c7db"/>
          <path id="Trazado_101500" data-name="Trazado 101500" d="M1592.248,113.485h4.32a1.106,1.106,0,0,1-.643-1v-3.368h-3.677v4.371Z" transform="translate(-1568.038 -98.926)" fill="#26c7db"/>
          <path id="Trazado_101501" data-name="Trazado 101501" d="M1596.572,116.851v4.369h-4.324v4.37h4.325v4.371h-4.295v4.371h4.327V138.7h4.37v-4.369h-4.323v-4.371h4.293V125.59h-4.327v-4.371h4.325v-4.267h-3.91A1.1,1.1,0,0,1,1596.572,116.851Z" transform="translate(-1568.038 -102.291)" fill="#26c7db"/>
        </g>
      </g>
    </g>
    <rect id="Rectangle_13192" data-name="Rectangle 13192" width="41" height="57" transform="translate(278 5838.132)" fill="none"/>
  </g>
</svg>
