<svg id="t2-i1" xmlns="http://www.w3.org/2000/svg" width="69" height="69" viewBox="0 0 69 69">
  <path id="Path_95499" data-name="Path 95499" d="M5.34,56.072h48.3v4.6H5.34Z" transform="translate(-3.04 -10.072)" fill="#8892a0"/>
  <path id="Path_95500" data-name="Path 95500" d="M51.674,56.072H5.34v4.6H46.133A46.326,46.326,0,0,0,51.674,56.072Z" transform="translate(-3.04 -10.072)" fill="#b8bec6"/>
  <path id="Path_95501" data-name="Path 95501" d="M2.67,61.412h69v13.8h-69Z" transform="translate(-2.67 -10.812)" fill="#b8bec6"/>
  <path id="Path_95502" data-name="Path 95502" d="M2.67,71.19a65.885,65.885,0,0,0,8.625.573c13.278,0,25.372-3.922,34.468-10.35H2.67Z" transform="translate(-2.67 -10.812)" fill="#e3e5e8"/>
  <g id="Group_58766" data-name="Group 58766" transform="translate(4.6 55.2)">
    <path id="Path_95503" data-name="Path 95503" d="M10.31,71.353a2.3,2.3,0,1,1,2.3-2.3A2.3,2.3,0,0,1,10.31,71.353Z" transform="translate(-8.01 -66.753)" fill="#66acd7"/>
    <path id="Path_95504" data-name="Path 95504" d="M20.991,71.353a2.3,2.3,0,1,1,2.3-2.3A2.3,2.3,0,0,1,20.991,71.353Z" transform="translate(-9.491 -66.753)" fill="#66acd7"/>
    <path id="Path_95505" data-name="Path 95505" d="M72.093,66.753h4.6v4.6h-4.6Z" transform="translate(-16.893 -66.753)" fill="#66acd7"/>
  </g>
  <path id="Path_95506" data-name="Path 95506" d="M5.34,77.433l4.6,4.6h55.2l4.6-4.6Z" transform="translate(-3.04 -13.033)" fill="#4d5d7a"/>
  <path id="Path_95507" data-name="Path 95507" d="M74.763,56.072h4.6v4.6h-4.6Z" transform="translate(-12.663 -10.072)" fill="#4d5d7a"/>
  <path id="Path_95508" data-name="Path 95508" d="M28.631,2.67l46,46h-9.2l-41.4-41.4Z" transform="translate(-5.631 -2.67)" fill="#8892a0"/>
  <g id="Group_58767" data-name="Group 58767" transform="translate(19.55 31.05)">
    <path id="Path_95509" data-name="Path 95509" d="M25.366,38.716h2.3v6.9h-2.3Z" transform="translate(-25.366 -38.716)" fill="#8892a0"/>
  </g>
  <g id="Group_58768" data-name="Group 58768" transform="translate(24.481 33.686)">
    <path id="Path_95510" data-name="Path 95510" d="M0,0H6.5V2.3H0Z" transform="translate(0 4.599) rotate(-45)" fill="#8892a0"/>
  </g>
  <g id="Group_58769" data-name="Group 58769" transform="translate(10.682 33.685)">
    <path id="Path_95511" data-name="Path 95511" d="M0,0H2.3V6.5H0Z" transform="translate(0 1.626) rotate(-45)" fill="#8892a0"/>
  </g>
</svg>
