<svg xmlns="http://www.w3.org/2000/svg" width="41.111" height="57" viewBox="0 0 41.111 57">
  <g id="t1-i16" transform="translate(-278.111 -5632)">
    <g id="t1-i16-2" data-name="t1-i16" transform="translate(278.111 5632.132)">
      <path id="Path_101182" data-name="Path 101182" d="M-7569.133-6260.711l-1.754,1.272v51.856h39.072v-40.4l-12.28-12.725Z" transform="translate(7571.74 6262.402)" fill="#fff"/>
      <g id="t1-i16-3" data-name="t1-i16">
        <path id="Trazado_101487" data-name="Trazado 101487" d="M1340.887,114.752a1.1,1.1,0,0,0-.263-.718l-10.9-12.446s-.006,0-.009-.007a1.063,1.063,0,0,0-.22-.185c-.024-.015-.049-.03-.074-.044a1.089,1.089,0,0,0-.219-.092c-.019-.006-.039-.015-.059-.019a1.069,1.069,0,0,0-.254-.032h-26.778a2.219,2.219,0,0,0-2.216,2.216v52.08a2.219,2.219,0,0,0,2.216,2.216h36.567a2.219,2.219,0,0,0,2.216-2.216v-40.63C1340.9,114.834,1340.892,114.793,1340.887,114.752Zm-23.535,39.157a15.053,15.053,0,0,1-4.488.758,7.492,7.492,0,0,1-5.465-1.815,6.5,6.5,0,0,1-1.893-4.886c.019-4.467,3.27-7.019,7.677-7.019a9.258,9.258,0,0,1,3.73.658l-.638,2.433a7.449,7.449,0,0,0-3.132-.578c-2.531,0-4.446,1.437-4.446,4.347a4.407,4.407,0,0,0,5.724,4.21v-2.811h-2.074v-2.374h5.005v7.076Zm5.425.618h-3.052V141.086h3.052Zm10.85-10.949h-5.165v3.073h4.826v2.472h-4.826v5.4h-3.052V141.086h8.217v2.492Zm-31.513-4.74V103.426h25.672v11.338a1.108,1.108,0,0,0,1.108,1.108h9.788v22.966Z" transform="translate(-1299.898 -101.21)" fill="#26c7db"/>
        <g id="Grupo_81173" data-name="Grupo 81173" transform="translate(10.985 7.898)">
          <g id="Grupo_81172" data-name="Grupo 81172">
            <g id="Grupo_81171" data-name="Grupo 81171">
              <path id="Trazado_101488" data-name="Trazado 101488" d="M1338.366,137.409,1332.6,130.6h3.2l-5.314-6.281h3.312l-4.372-5.161h2.037l-3.359-3.969-3.053,3.969h2.059l-3.97,5.161h3.25l-4.832,6.28h3.018l-5.242,6.814h8.788v8.245h1.451v-8.245Z" transform="translate(-1319.337 -115.185)" fill="#26c7db"/>
            </g>
          </g>
        </g>
      </g>
    </g>
    <rect id="Rectangle_13191" data-name="Rectangle 13191" width="41" height="57" transform="translate(278.223 5632)" fill="none"/>
  </g>
</svg>
