<svg id="t2-i3" xmlns="http://www.w3.org/2000/svg" xmlns:xlink="http://www.w3.org/1999/xlink" width="76.578" height="69" viewBox="0 0 76.578 69">
  <defs>
    <clipPath id="clip-path">
      <rect id="Rectangle_8491" data-name="Rectangle 8491" width="76.578" height="69" fill="none"/>
    </clipPath>
  </defs>
  <g id="Group_57993" data-name="Group 57993" transform="translate(0 0)">
    <g id="Group_57992" data-name="Group 57992" clip-path="url(#clip-path)">
      <g id="iphone" transform="translate(10.429)">
        <path id="Path_95531" data-name="Path 95531" d="M14.172,0A6.463,6.463,0,0,0,7.716,6.456v56.1a6.463,6.463,0,0,0,6.456,6.455H32.745V0Z" transform="translate(-7.716)" fill="#efefef"/>
        <path id="Path_95532" data-name="Path 95532" d="M11.562,62.56V6.456A6.463,6.463,0,0,1,18.017,0H14.172A6.463,6.463,0,0,0,7.716,6.456v56.1a6.463,6.463,0,0,0,6.456,6.455h3.846A6.463,6.463,0,0,1,11.562,62.56Z" transform="translate(-7.716)" fill="#ddd"/>
        <path id="Path_95533" data-name="Path 95533" d="M15.443,4.18h0A3.273,3.273,0,0,0,12.18,7.443v7.638a3.273,3.273,0,0,0,3.264,3.264h0a3.273,3.273,0,0,0,3.264-3.264V7.443A3.273,3.273,0,0,0,15.443,4.18Z" transform="translate(-8.334 -0.579)" fill="#535454"/>
        <path id="Path_95534" data-name="Path 95534" d="M15.443,15.081V7.443a3.27,3.27,0,0,1,1.632-2.822,3.266,3.266,0,0,0-4.9,2.822v7.638a3.266,3.266,0,0,0,4.9,2.822A3.27,3.27,0,0,1,15.443,15.081Z" transform="translate(-8.334 -0.578)" fill="#444443"/>
        <path id="Path_95535" data-name="Path 95535" d="M59.964,0H35.728a6.463,6.463,0,0,0-6.456,6.456v56.1a6.463,6.463,0,0,0,6.456,6.456H59.964a6.463,6.463,0,0,0,6.456-6.456V6.456A6.463,6.463,0,0,0,59.964,0Z" transform="translate(-10.7)" fill="#535454"/>
        <path id="Path_95536" data-name="Path 95536" d="M32.849,62.56V6.456A6.463,6.463,0,0,1,39.3,0H35.728a6.463,6.463,0,0,0-6.456,6.456v56.1a6.463,6.463,0,0,0,6.456,6.456H39.3A6.463,6.463,0,0,1,32.849,62.56Z" transform="translate(-10.7)" fill="#444443"/>
        <path id="Path_95537" data-name="Path 95537" d="M63.417,63.135a2.879,2.879,0,0,1-2.879,2.879H36.3a2.879,2.879,0,0,1-2.879-2.879V7.03A2.879,2.879,0,0,1,36.3,4.151h3.02A1.077,1.077,0,0,1,40.4,5.229v.683a1.671,1.671,0,0,0,1.666,1.666H54.774a1.671,1.671,0,0,0,1.666-1.666V4.924a.773.773,0,0,1,.773-.773h3.325A2.879,2.879,0,0,1,63.417,7.03Z" transform="translate(-11.274 -0.575)" fill="#a4d9f4"/>
        <path id="Path_95538" data-name="Path 95538" d="M36.859,63.135V7.03a2.878,2.878,0,0,1,2.623-2.866c-.167-.025.011-.008-3.179-.013A2.879,2.879,0,0,0,33.424,7.03v56.1A2.879,2.879,0,0,0,36.3,66.014h3.434A2.879,2.879,0,0,1,36.859,63.135Z" transform="translate(-11.274 -0.574)" fill="#7cc9e8"/>
        <g id="Group_58771" data-name="Group 58771" transform="translate(6.068 2.534)">
          <path id="Path_95539" data-name="Path 95539" d="M54.654,5.026H49.216a1.042,1.042,0,1,1,0-2.083h5.438a1.042,1.042,0,0,1,0,2.083Z" transform="translate(-19.384 -2.941)" fill="#666"/>
          <path id="Path_95540" data-name="Path 95540" d="M44.836,4.85a1.041,1.041,0,1,1,.78.156A1.677,1.677,0,0,1,44.836,4.85Z" transform="translate(-18.858 -2.941)" fill="#666"/>
          <path id="Path_95541" data-name="Path 95541" d="M15.222,8.829A1.042,1.042,0,1,1,16,8.983,1.328,1.328,0,0,1,15.222,8.829Z" transform="translate(-14.758 -3.492)" fill="#666"/>
        </g>
        <path id="Path_95542" data-name="Path 95542" d="M15.222,13.1a1.042,1.042,0,1,1,1.315-.131A1.168,1.168,0,0,1,15.222,13.1Z" transform="translate(-8.691 -1.549)" fill="#f9d698"/>
        <path id="Path_95543" data-name="Path 95543" d="M15.222,17.369a1.042,1.042,0,1,1,1.315-.129A1.075,1.075,0,0,1,15.222,17.369Z" transform="translate(-8.691 -2.14)" fill="#666"/>
        <path id="Path_95544" data-name="Path 95544" d="M40.68,17.264H37.893a.466.466,0,0,1-.465-.465V14.012a.466.466,0,0,1,.465-.465H40.68a.466.466,0,0,1,.465.465V16.8A.466.466,0,0,1,40.68,17.264Z" transform="translate(-11.829 -1.875)" fill="#70b5e8"/>
        <path id="Path_95545" data-name="Path 95545" d="M48.3,17.264H45.509a.466.466,0,0,1-.465-.465V14.012a.466.466,0,0,1,.465-.465H48.3a.466.466,0,0,1,.465.465V16.8A.466.466,0,0,1,48.3,17.264Z" transform="translate(-12.883 -1.875)" fill="#efefef"/>
        <path id="Path_95546" data-name="Path 95546" d="M55.911,17.264H53.124a.466.466,0,0,1-.465-.465V14.012a.466.466,0,0,1,.465-.465h2.787a.466.466,0,0,1,.465.465V16.8A.466.466,0,0,1,55.911,17.264Z" transform="translate(-13.937 -1.875)" fill="#92b620"/>
        <path id="Path_95547" data-name="Path 95547" d="M63.527,17.264H60.739a.466.466,0,0,1-.465-.465V14.012a.466.466,0,0,1,.465-.465h2.787a.466.466,0,0,1,.465.465V16.8A.466.466,0,0,1,63.527,17.264Z" transform="translate(-14.991 -1.875)" fill="#898989"/>
        <path id="Path_95548" data-name="Path 95548" d="M40.68,24.954H37.893a.466.466,0,0,1-.465-.465V21.7a.466.466,0,0,1,.465-.465H40.68a.466.466,0,0,1,.465.465V24.49A.466.466,0,0,1,40.68,24.954Z" transform="translate(-11.829 -2.94)" fill="#92b620"/>
        <path id="Path_95549" data-name="Path 95549" d="M48.3,24.954H45.509a.466.466,0,0,1-.465-.465V21.7a.466.466,0,0,1,.465-.465H48.3a.466.466,0,0,1,.465.465V24.49A.466.466,0,0,1,48.3,24.954Z" transform="translate(-12.883 -2.94)" fill="#898989"/>
        <path id="Path_95550" data-name="Path 95550" d="M55.911,24.954H53.124a.466.466,0,0,1-.465-.465V21.7a.466.466,0,0,1,.465-.465h2.787a.466.466,0,0,1,.465.465V24.49A.466.466,0,0,1,55.911,24.954Z" transform="translate(-13.937 -2.94)" fill="#70b5e8"/>
        <path id="Path_95551" data-name="Path 95551" d="M63.527,24.954H60.739a.466.466,0,0,1-.465-.465V21.7a.466.466,0,0,1,.465-.465h2.787a.466.466,0,0,1,.465.465V24.49A.466.466,0,0,1,63.527,24.954Z" transform="translate(-14.991 -2.94)" fill="#f94a46"/>
        <path id="Path_95552" data-name="Path 95552" d="M40.68,32.745H37.893a.466.466,0,0,1-.465-.465V29.493a.466.466,0,0,1,.465-.465H40.68a.466.466,0,0,1,.465.465V32.28A.466.466,0,0,1,40.68,32.745Z" transform="translate(-11.829 -4.018)" fill="#dda36f"/>
        <path id="Path_95553" data-name="Path 95553" d="M48.3,32.745H45.509a.466.466,0,0,1-.465-.465V29.493a.466.466,0,0,1,.465-.465H48.3a.466.466,0,0,1,.465.465V32.28A.466.466,0,0,1,48.3,32.745Z" transform="translate(-12.883 -4.018)" fill="#f9d698"/>
        <path id="Path_95554" data-name="Path 95554" d="M55.911,32.745H53.124a.466.466,0,0,1-.465-.465V29.493a.466.466,0,0,1,.465-.465h2.787a.466.466,0,0,1,.465.465V32.28A.466.466,0,0,1,55.911,32.745Z" transform="translate(-13.937 -4.018)" fill="#898989"/>
        <path id="Path_95555" data-name="Path 95555" d="M63.527,32.745H60.739a.466.466,0,0,1-.465-.465V29.493a.466.466,0,0,1,.465-.465h2.787a.466.466,0,0,1,.465.465V32.28A.466.466,0,0,1,63.527,32.745Z" transform="translate(-14.991 -4.018)" fill="#f9d698"/>
        <g id="Group_58772" data-name="Group 58772" transform="translate(25.6 31.637)">
          <path id="Path_95556" data-name="Path 95556" d="M40.68,40.435H37.893a.466.466,0,0,1-.465-.465V37.184a.466.466,0,0,1,.465-.465H40.68a.466.466,0,0,1,.465.465v2.787A.466.466,0,0,1,40.68,40.435Z" transform="translate(-37.429 -36.719)" fill="#70b5e8"/>
          <path id="Path_95557" data-name="Path 95557" d="M48.3,40.435H45.509a.466.466,0,0,1-.465-.465V37.184a.466.466,0,0,1,.465-.465H48.3a.466.466,0,0,1,.465.465v2.787A.466.466,0,0,1,48.3,40.435Z" transform="translate(-38.483 -36.719)" fill="#70b5e8"/>
        </g>
        <path id="Path_95558" data-name="Path 95558" d="M55.911,40.435H53.124a.466.466,0,0,1-.465-.465V37.184a.466.466,0,0,1,.465-.465h2.787a.466.466,0,0,1,.465.465v2.787A.466.466,0,0,1,55.911,40.435Z" transform="translate(-13.937 -5.082)" fill="#f94a46"/>
        <path id="Path_95559" data-name="Path 95559" d="M40.68,48.126H37.893a.466.466,0,0,1-.465-.465V44.874a.466.466,0,0,1,.465-.465H40.68a.466.466,0,0,1,.465.465v2.787A.466.466,0,0,1,40.68,48.126Z" transform="translate(-11.829 -6.147)" fill="#efefef"/>
        <path id="Path_95560" data-name="Path 95560" d="M48.3,48.126H45.509a.466.466,0,0,1-.465-.465V44.874a.466.466,0,0,1,.465-.465H48.3a.466.466,0,0,1,.465.465v2.787A.466.466,0,0,1,48.3,48.126Z" transform="translate(-12.883 -6.147)" fill="#92b620"/>
        <path id="Path_95561" data-name="Path 95561" d="M55.911,48.126H53.124a.466.466,0,0,1-.465-.465V44.874a.466.466,0,0,1,.465-.465h2.787a.466.466,0,0,1,.465.465v2.787A.466.466,0,0,1,55.911,48.126Z" transform="translate(-13.937 -6.147)" fill="#898989"/>
        <path id="Path_95562" data-name="Path 95562" d="M63.527,40.435H60.739a.466.466,0,0,1-.465-.465V37.184a.466.466,0,0,1,.465-.465h2.787a.466.466,0,0,1,.465.465v2.787A.466.466,0,0,1,63.527,40.435Z" transform="translate(-14.991 -5.082)" fill="#ffb70d"/>
        <path id="Path_95563" data-name="Path 95563" d="M40.68,71.855H37.893a.466.466,0,0,1-.465-.465V68.6a.466.466,0,0,1,.465-.465H40.68a.466.466,0,0,1,.465.465V71.39A.466.466,0,0,1,40.68,71.855Z" transform="translate(-11.829 -9.431)" fill="#92b620"/>
        <path id="Path_95564" data-name="Path 95564" d="M48.3,71.855H45.509a.466.466,0,0,1-.465-.465V68.6a.466.466,0,0,1,.465-.465H48.3a.466.466,0,0,1,.465.465V71.39A.466.466,0,0,1,48.3,71.855Z" transform="translate(-12.883 -9.431)" fill="#70b5e8"/>
        <path id="Path_95565" data-name="Path 95565" d="M55.911,71.855H53.124a.466.466,0,0,1-.465-.465V68.6a.466.466,0,0,1,.465-.465h2.787a.466.466,0,0,1,.465.465V71.39A.466.466,0,0,1,55.911,71.855Z" transform="translate(-13.937 -9.431)" fill="#92b620"/>
        <path id="Path_95566" data-name="Path 95566" d="M63.527,71.855H60.739a.466.466,0,0,1-.465-.465V68.6a.466.466,0,0,1,.465-.465h2.787a.466.466,0,0,1,.465.465V71.39A.466.466,0,0,1,63.527,71.855Z" transform="translate(-14.991 -9.431)" fill="#efefef"/>
      </g>
    </g>
  </g>
</svg>
